<svg width="171" height="16" viewBox="0 0 171 16" fill="none" xmlns="http://www.w3.org/2000/svg">
<g clip-path="url(#clip0)">
<path d="M121.606 9.71808C121.606 10.7307 121.266 11.4983 120.561 12.07C119.868 12.6416 118.919 12.9356 117.667 12.9356C116.427 12.9356 115.479 12.6416 114.786 12.07C114.093 11.4983 113.752 10.7307 113.752 9.72625C113.752 8.72997 114.093 7.96234 114.798 7.3907C115.503 6.81907 116.451 6.52508 117.691 6.52508C118.944 6.52508 119.88 6.81907 120.585 7.3907C121.29 7.92967 121.631 8.72997 121.631 9.73441L121.606 9.71808ZM125.047 14.5362V4.9H122.494L121.91 6.01061H121.862C121.217 5.54513 120.464 5.17765 119.673 4.949C118.871 4.70401 118.02 4.60602 117.071 4.60602C115.065 4.60602 113.473 5.07149 112.184 6.01061C110.883 6.94973 110.238 8.15833 110.238 9.60375V9.9304C110.238 11.3677 110.883 12.5436 112.184 13.4419C113.473 14.3402 115.065 14.8138 116.926 14.8138C117.959 14.8138 118.871 14.6832 119.649 14.4463C120.451 14.2013 121.108 13.8339 121.594 13.3684H121.655L122.202 14.5443H125.035L125.047 14.5362ZM138.543 9.71808C138.543 10.7307 138.202 11.4983 137.509 12.07C136.816 12.6416 135.868 12.9356 134.616 12.9356C133.376 12.9356 132.427 12.6416 131.722 12.07C131.029 11.4983 130.676 10.7307 130.676 9.72625C130.676 8.72997 131.041 7.96234 131.722 7.3907C132.427 6.81907 133.376 6.52508 134.616 6.52508C135.868 6.52508 136.804 6.81907 137.509 7.3907C138.202 7.92967 138.555 8.72997 138.555 9.73441L138.543 9.71808ZM141.947 14.5362V1.16803H138.458V5.65946H138.409C137.923 5.28381 137.315 5.00616 136.658 4.84284C135.965 4.67951 135.163 4.58152 134.227 4.58152C132.16 4.58152 130.482 5.04699 129.12 5.98611C127.844 6.92523 127.175 8.12566 127.175 9.57926V9.93857C127.175 11.3432 127.831 12.5109 129.181 13.4174C130.518 14.3565 132.075 14.7893 133.971 14.7893C135.066 14.7893 135.953 14.6913 136.743 14.4627C137.546 14.2177 138.202 13.891 138.786 13.4174H138.847L139.333 14.479H141.947V14.5607V14.5362ZM47.4535 5.12049V10.7715C47.4535 12.0128 48.0614 12.9764 49.2043 13.7114C50.3472 14.4463 51.8426 14.822 53.7028 14.822C55.5265 14.822 57.022 14.4545 58.177 13.7195C59.3199 12.9846 59.9157 11.972 59.9157 10.7634V5.10416H56.4749V10.6327C56.4749 11.3677 56.2317 11.9066 55.7819 12.3068C55.332 12.6743 54.639 12.8784 53.6907 12.8784C52.791 12.8784 52.1101 12.6743 51.5994 12.3068C51.1496 11.9393 50.8943 11.3677 50.8943 10.6327V5.10416H47.4535V5.12049ZM65.5936 2.45013C65.1072 3.21776 64.5479 3.82206 63.9522 4.2467C63.3443 4.68768 62.554 5.09599 61.6664 5.35731V6.45159H63.6118V11.4657C63.6118 12.5273 64.0008 13.3439 64.8033 13.9155C65.5935 14.4463 66.7486 14.7158 68.2927 14.7158C68.6817 14.7158 69.1802 14.6832 69.7881 14.577C70.396 14.479 70.8337 14.381 71.1742 14.2503V12.3313H70.6878C70.3231 12.4946 69.9827 12.6089 69.6787 12.6743C69.3504 12.7396 69.0465 12.7723 68.706 12.7723C68.1468 12.7723 67.7577 12.6743 67.4902 12.5028C67.2471 12.3394 67.1012 12.0781 67.1012 11.7106V6.45159H70.7486V4.63868H67.1012V2.46646H65.6057L65.5936 2.45013ZM83.7336 9.71808C83.7336 10.6817 83.3932 11.4493 82.688 12.021C82.0071 12.5926 81.0588 12.8866 79.8673 12.8866C78.6515 12.8866 77.7153 12.5844 77.0223 12.021C76.3292 11.4493 76.0253 10.6817 76.0253 9.70992C76.0253 8.7463 76.39 7.97867 77.0223 7.40704C77.7153 6.8354 78.6636 6.54141 79.8673 6.54141C81.0588 6.54141 82.0071 6.84357 82.7001 7.40704C83.4296 7.94601 83.7579 8.71363 83.7579 9.71808H83.7336ZM87.223 9.88141V9.55476C87.223 8.0685 86.53 6.90073 85.0832 5.96161C83.685 5.06333 81.8977 4.58968 79.7943 4.58968C77.7031 4.58968 75.9645 5.05516 74.5663 5.96161C73.1681 6.8599 72.4751 8.0685 72.4751 9.55476V9.88141C72.4751 11.3513 73.1803 12.5191 74.5785 13.4582C75.9767 14.3565 77.7153 14.8301 79.8065 14.8301C81.9099 14.8301 83.6971 14.3647 85.0953 13.4582C86.5543 12.5273 87.2352 11.3513 87.2352 9.88141H87.223ZM91.1623 14.5362H94.8097V3.86289H100.086V1.76417H85.6181V3.87105H91.1866V14.5362H91.1623ZM105.023 7.70102C105.57 7.33354 106.506 7.12938 107.819 7.12938H109.096V4.84284C108.998 4.84284 108.804 4.81017 108.609 4.81017C108.366 4.81017 108.159 4.76117 107.953 4.76117C106.944 4.76117 106.105 4.9245 105.351 5.30015C104.621 5.6268 104.159 6.10044 103.953 6.70474H103.916L103.187 4.86734H100.67V14.5035H104.172V9.88957C104.172 8.85246 104.463 8.10933 105.023 7.70919V7.70102ZM154.701 8.59931H147.929C148.172 7.90518 148.622 7.37437 149.218 7.03139C149.826 6.70474 150.616 6.50058 151.564 6.50058C152.513 6.50058 153.266 6.69657 153.801 7.07222C154.348 7.43153 154.652 7.93784 154.701 8.60747V8.59931ZM158.288 9.9059V9.44043C158.288 8.00317 157.631 6.82723 156.342 5.92895C155.042 5.03066 153.388 4.58968 151.394 4.58968C149.351 4.58968 147.661 5.05516 146.312 5.99428C144.975 6.93339 144.269 8.13383 144.269 9.53842V9.84057C144.269 11.286 144.962 12.4538 146.312 13.3929C147.649 14.332 149.4 14.7975 151.443 14.7975C153.193 14.7975 154.64 14.528 155.82 13.9972C156.877 13.5235 157.57 12.8539 157.972 12.021H154.446C154.203 12.2904 153.886 12.4538 153.534 12.6253C153.048 12.8213 152.379 12.9274 151.54 12.9274C150.494 12.9274 149.643 12.6824 148.987 12.2578C148.342 11.8168 147.941 11.2207 147.795 10.4122H158.215C158.215 10.2489 158.215 10.0856 158.263 9.92224L158.288 9.9059ZM165.011 7.70102C165.558 7.33354 166.495 7.12938 167.808 7.12938H169.096V4.84284C168.975 4.84284 168.78 4.81017 168.586 4.81017C168.343 4.81017 168.136 4.76117 167.929 4.76117C166.932 4.76117 166.105 4.9245 165.34 5.30015C164.61 5.6268 164.16 6.10044 163.953 6.70474H163.905L163.175 4.86734H160.671V14.5035H164.16V9.88957C164.16 8.85246 164.403 8.10933 165.011 7.70919V7.70102ZM39.7209 9.3261H34.3348L36.0369 6.30459C36.3287 5.77379 36.5841 5.37364 36.6813 5.10416C36.8272 4.84284 36.9245 4.61418 36.9853 4.3692H37.0339C37.0825 4.53252 37.1798 4.69584 37.2284 4.8755C37.3257 5.03883 37.5932 5.54513 37.9823 6.31276L39.7209 9.33427V9.3261ZM46.3471 14.5525V14.2422L38.9914 2.02548H35.198L27.8423 14.2095V14.5117H31.3682L32.8029 11.9801L33.1068 11.433H40.8273L41.1312 11.972L42.5902 14.5035H46.3593V14.5443L46.3471 14.5525ZM23.0277 12.1026C22.1766 13.5072 20.2313 14.4708 17.9455 14.5117H1.09424L4.20674 9.3261H24.6812L23.0398 12.1026H23.0277Z" fill="#313C53"/>
<path fill-rule="evenodd" clip-rule="evenodd" d="M29.0581 1.99283L25.9942 7.18655H5.49548L7.13684 4.41003C7.98792 2.99728 9.98187 2.02549 12.219 1.99283H29.0703H29.0581Z" fill="#FF4436"/>
</g>
<defs>
<clipPath id="clip0">
<path d="M0 5.65357C0 2.89214 2.23858 0.653564 5 0.653564H165.215C167.976 0.653564 170.215 2.89214 170.215 5.65356V15.3528H0V5.65357Z" fill="white"/>
</clipPath>
</defs>
</svg>
