<svg width="150" height="17" viewBox="0 0 150 17" fill="none" xmlns="http://www.w3.org/2000/svg">
<g clip-path="url(#clip0)">
<path d="M18.1158 11.069C16.8521 12.9407 14.2985 14.0533 11.3231 14.0533C7.05778 14.0533 3.60882 11.546 3.60882 8.4557C3.60882 5.36542 7.08395 2.85775 11.3231 2.85775C14.4036 2.85775 16.8783 3.95242 18.1158 5.84204L18.1687 5.93048H21.3806L21.2754 5.7185C19.8531 2.71631 16.0358 0.862488 11.3231 0.862488C5.37281 0.862488 0.554932 4.25285 0.554932 8.4378C0.554932 12.6228 5.37281 16.031 11.3231 16.031C15.9829 16.031 19.8008 14.1593 21.2749 11.1575L21.3801 10.9455H18.1943L18.1158 11.069ZM30.8321 14.1063C28.0415 14.1063 25.7772 12.4466 25.7772 10.398C25.7772 8.31426 28.0415 6.63663 30.8321 6.63663C33.6228 6.63663 35.9661 8.36726 35.9661 10.398C35.9399 12.4111 33.5966 14.1063 30.8321 14.1063ZM36.0451 6.33655C35.4111 5.81892 34.616 5.40054 33.7155 5.11074C32.815 4.82094 31.8309 4.66673 30.8321 4.65892C26.2775 4.65892 22.6966 7.16625 22.6966 10.3804C22.6966 13.5767 26.2775 16.084 30.8321 16.084C31.8333 16.0753 32.8193 15.9189 33.7202 15.626C34.6211 15.333 35.4149 14.9106 36.0451 14.3888V15.819H39.02V4.9239H36.0451V6.33655ZM49.1036 4.65892C48.2963 4.65266 47.4954 4.75578 46.7489 4.96209C46.0024 5.1684 45.3257 5.47367 44.7593 5.85959V4.92356H41.7845V15.8187H44.865V9.19695C44.865 7.67831 46.4972 6.58364 48.7614 6.58364C50.6834 6.58364 52 7.34279 52.3156 8.61434V8.64979L55.3694 8.63224V8.57924C54.9487 6.17756 52.5793 4.65892 49.1036 4.65892Z" fill="#EF3742"/>
<path d="M10.6387 6.79562H12.6397V10.7335H10.6387V6.79562Z" fill="#EF3742"/>
<path d="M15.3513 8.17317C15.9911 8.17317 16.5098 7.82527 16.5098 7.39612C16.5098 6.96697 15.9911 6.61908 15.3513 6.61908C14.7114 6.61908 14.1927 6.96697 14.1927 7.39612C14.1927 7.82527 14.7114 8.17317 15.3513 8.17317Z" fill="#EF3742"/>
<path d="M7.90025 8.17317C8.54009 8.17317 9.05879 7.82527 9.05879 7.39612C9.05879 6.96697 8.54009 6.61908 7.90025 6.61908C7.2604 6.61908 6.7417 6.96697 6.7417 7.39612C6.7417 7.82527 7.2604 8.17317 7.90025 8.17317Z" fill="#EF3742"/>
<path d="M118.979 15.9838C115.115 15.9838 112.31 14.1025 112.31 11.5105V5.04157H115.012V11.5102C115.012 13.1228 116.607 14.2064 118.979 14.2064C121.337 14.2064 122.92 13.1228 122.92 11.5102V5.04157H125.649V11.5102C125.648 14.1028 122.843 15.9838 118.979 15.9838ZM87.5431 15.9838C83.6786 15.9838 80.8735 14.1025 80.8735 11.5105V5.04157H83.576V11.5102C83.576 13.1228 85.1706 14.2064 87.5431 14.2064C89.9003 14.2064 91.4836 13.1228 91.4836 11.5102V5.04157H94.2127V11.5102C94.2127 14.1028 91.4077 15.9838 87.5431 15.9838ZM135.25 8.9144C132.038 8.57888 131.459 8.29635 131.459 7.71374C131.459 6.97214 132.933 6.38953 134.802 6.38953C136.751 6.38953 138.041 6.97214 138.357 7.96117L138.409 8.08471H141.516L141.49 7.90817C141.148 5.78902 138.594 4.46481 134.829 4.46481C130.406 4.46481 128.405 6.17754 128.405 7.76708C128.405 9.86833 130.828 10.5218 134.751 10.8925C138.542 11.228 138.832 11.74 138.832 12.3757C138.832 13.1527 137.568 13.9473 135.12 13.9473C132.881 13.9473 131.249 13.2232 130.933 12.0756L130.907 11.952H127.827L127.853 12.1286C128.3 14.4064 131.144 15.8899 135.119 15.8899C139.121 15.8899 141.807 14.4418 141.807 12.2876C141.832 9.81499 138.989 9.30293 135.25 8.9144ZM67.0336 8.66732V10.486H73.8001L73.8792 10.3976C74.0741 10.1164 74.2157 9.81981 74.3004 9.51456C74.3866 9.23513 74.4394 8.95191 74.4584 8.66697H67.0336V8.66732Z" fill="#00A0DD"/>
<path d="M75.6693 8.66733C75.5112 11.7046 72.2465 14.0003 68.113 14.0003C63.7954 14.0003 60.2674 11.493 60.2674 8.43779C60.2674 5.36506 63.7954 2.85774 68.113 2.85774C71.0356 2.85774 73.5369 3.97031 74.8268 5.84203L74.8796 5.93047H78.1705L78.0654 5.71848C76.5123 2.71665 72.6154 0.791931 68.1135 0.791931C62.0843 0.791931 57.1874 4.21774 57.1874 8.42024C57.1874 12.6227 62.0843 16.0485 68.1135 16.0485C69.4755 16.0516 70.8247 15.872 72.0816 15.5203C73.3386 15.1685 74.4779 14.6517 75.4327 14.0003C76.4605 13.2964 77.2691 12.4623 77.8116 11.5468C78.354 10.6312 78.6194 9.65237 78.5923 8.66733H75.6693ZM104.314 4.65891C103.507 4.65265 102.706 4.75576 101.959 4.96208C101.213 5.16839 100.536 5.47365 99.9695 5.85958V4.92355H96.9947V15.8187H100.075V9.19694C100.075 7.6783 101.707 6.58362 103.972 6.58362C105.894 6.58362 107.21 7.34277 107.526 8.61433V8.64977L110.58 8.63222V8.57923C110.159 6.17755 107.789 4.65891 104.314 4.65891ZM146.913 4.74735C146.885 4.71248 146.852 4.67942 146.815 4.64859C146.779 4.62 146.737 4.59527 146.691 4.57529C146.95 4.54467 147.186 4.45512 147.359 4.32166C147.51 4.1933 147.589 4.03363 147.582 3.87017C147.591 3.77102 147.565 3.67183 147.504 3.58113C147.444 3.49043 147.351 3.41093 147.235 3.3495C146.914 3.21556 146.537 3.15373 146.16 3.17296H144.953V5.68923H145.609V4.69126H145.942C145.997 4.68893 146.053 4.69566 146.104 4.71087C146.14 4.72498 146.17 4.74425 146.194 4.76731L147.044 5.61903C147.064 5.64218 147.094 5.66103 147.13 5.67349C147.165 5.68595 147.205 5.69152 147.245 5.68958H147.872L146.913 4.74804V4.74735H146.913ZM146.093 4.36915H145.61V3.51158H146.161C146.285 3.50986 146.408 3.51847 146.529 3.5367C146.616 3.54978 146.698 3.57559 146.769 3.61276C146.83 3.64683 146.875 3.69191 146.9 3.74249C146.929 3.80168 146.942 3.86363 146.941 3.92591C146.946 3.98662 146.932 4.04746 146.9 4.1042C146.867 4.16095 146.816 4.21225 146.751 4.25456C146.559 4.34433 146.326 4.38499 146.093 4.36915Z" fill="#00A0DD"/>
<path d="M67.9812 7.41332C68.6499 7.41332 69.1921 7.04971 69.1921 6.60118C69.1921 6.15264 68.6499 5.78903 67.9812 5.78903C67.3124 5.78903 66.7703 6.15264 66.7703 6.60118C66.7703 7.04971 67.3124 7.41332 67.9812 7.41332Z" fill="#00A0DD"/>
<path d="M72.5887 7.41332C73.2574 7.41332 73.7996 7.04971 73.7996 6.60118C73.7996 6.15264 73.2574 5.78903 72.5887 5.78903C71.9199 5.78903 71.3778 6.15264 71.3778 6.60118C71.3778 7.04971 71.9199 7.41332 72.5887 7.41332Z" fill="#00A0DD"/>
<path d="M146.273 6.52615C145.655 6.52608 145.051 6.40316 144.538 6.17292C144.024 5.94269 143.624 5.61548 143.387 5.23267C143.151 4.84987 143.089 4.42865 143.21 4.02228C143.33 3.61591 143.628 3.24264 144.065 2.94966C144.502 2.65668 145.058 2.45715 145.664 2.3763C146.27 2.29545 146.898 2.33691 147.469 2.49544C148.039 2.65397 148.527 2.92244 148.871 3.26692C149.214 3.6114 149.397 4.01641 149.397 4.43074C149.396 4.98634 149.067 5.51905 148.481 5.91191C147.896 6.30478 147.101 6.52569 146.273 6.52615ZM146.273 2.67534C145.755 2.67548 145.249 2.77857 144.819 2.9716C144.388 3.16462 144.053 3.4389 143.855 3.75975C143.657 4.0806 143.606 4.43362 143.707 4.77417C143.808 5.11471 144.057 5.42749 144.423 5.67295C144.79 5.91842 145.256 6.08554 145.764 6.15319C146.272 6.22084 146.798 6.18598 147.276 6.05302C147.755 5.92006 148.163 5.69497 148.451 5.40621C148.738 5.11745 148.892 4.77798 148.892 4.43074C148.891 3.96514 148.615 3.51876 148.124 3.18963C147.633 2.86049 146.967 2.67552 146.273 2.67534Z" fill="#00A0DD"/>
</g>
<defs>
<clipPath id="clip0">
<path d="M0.322021 5.52283C0.322021 2.76141 2.5606 0.522827 5.32202 0.522827H144.63C147.391 0.522827 149.63 2.7614 149.63 5.52283V16.3528H0.322021V5.52283Z" fill="white"/>
</clipPath>
</defs>
</svg>
