<svg width="86" height="23" viewBox="0 0 86 23" fill="none" xmlns="http://www.w3.org/2000/svg">
<g clip-path="url(#clip0)">
<path d="M11.9188 5.20593C5.95575 5.20593 0.986755 6.89199 0.986755 11.9788C0.986755 16.0086 4.32805 18.5464 12.0728 18.5464C21.1887 18.5464 21.773 14.5442 21.773 14.5442H17.3559C17.3559 14.5442 16.4089 16.6992 11.8033 16.6992C8.05221 16.6992 5.35426 15.0104 5.35426 12.6432H22.2349V11.1578C22.2349 8.81596 20.0043 5.20593 11.9188 5.20593ZM11.7648 7.10438C15.3355 7.10438 17.7697 8.56227 17.7697 10.7473H5.45195C5.45195 8.42762 8.62928 7.10438 11.7648 7.10438Z" fill="#E53238"/>
<path d="M22.2325 0.280212V15.9918C22.2325 16.8836 22.137 18.1359 22.137 18.1359H26.3499C26.3499 18.1359 26.5011 17.2365 26.5011 16.4145C26.5011 16.4145 28.5826 18.5848 34.2423 18.5848C40.2022 18.5848 44.2505 15.8271 44.2505 11.8761C44.2505 8.20057 40.532 5.24439 34.2519 5.24439C28.3711 5.24439 26.5437 7.3609 26.5437 7.3609V0.280212H22.2325ZM33.1645 7.18773C37.2117 7.18773 39.7853 9.18965 39.7853 11.8761C39.7853 14.7569 36.8129 16.6415 33.1934 16.6415C28.8738 16.6415 26.5437 14.3936 26.5437 11.9018C26.5437 9.57984 28.6346 7.18773 33.1645 7.18773Z" fill="#0064D2"/>
<path d="M54.7207 5.20593C45.7497 5.20593 45.1744 8.47969 45.1744 9.00282H49.6396C49.6396 9.00282 49.8737 7.09155 54.4127 7.09155C57.3622 7.09155 59.6478 7.99131 59.6478 9.72115V10.3369H54.4127C47.4628 10.3369 43.7886 11.6919 43.7886 14.4416C43.7886 17.1477 47.1835 18.6201 51.7711 18.6201C58.0234 18.6201 60.0375 16.3176 60.0375 16.3176C60.0375 17.2334 60.1434 18.1359 60.1434 18.1359H64.113C64.113 18.1359 63.959 17.0172 63.959 16.3016V10.1156C63.959 6.05953 59.0501 5.20593 54.7207 5.20593ZM59.6478 12.184V13.0049C59.6478 14.0757 58.6564 16.7377 52.8201 16.7377C49.6241 16.7377 48.2538 15.6747 48.2538 14.4416C48.2538 12.1984 52.8684 12.184 59.6478 12.184Z" fill="#F5AF02"/>
<path d="M61.5546 5.71954H66.578L73.7872 15.3455L80.9799 5.71954H85.5303L72.4289 22.8568H67.6558L71.4363 18.0796L61.5546 5.71954Z" fill="#86B817"/>
</g>
<defs>
<clipPath id="clip0">
<path d="M0.95929 5.26141C0.95929 2.49999 3.19787 0.261414 5.95929 0.261414H80.5585C83.3199 0.261414 85.5585 2.49999 85.5585 5.26141V22.8756H0.95929V5.26141Z" fill="white"/>
</clipPath>
</defs>
</svg>
