<svg width="149" height="20" viewBox="0 0 149 20" fill="none" xmlns="http://www.w3.org/2000/svg">
<g clip-path="url(#clip0)">
<path d="M12.8837 3.46671C11.1552 3.46671 10.6554 3.9809 10.6554 5.115V6.99636H15.266L14.8039 10.0358H10.6572V19.26H5.12413V10.0358H1.39661V6.99636H5.12413V5.16666C5.12413 2.10074 6.9673 0.48128 12.1099 0.48128C13.1875 0.479585 14.2643 0.522516 15.3341 0.609828V3.47031L12.8837 3.46671Z" fill="#1876F2"/>
<path d="M15.6494 12.7413C15.6494 9.315 18.0693 6.73444 23.1402 6.73444C25.9059 6.73444 27.595 7.68833 28.4028 8.87289V6.99634H33.7031V19.26H28.4028V17.4051C27.6344 18.5908 25.9059 19.5183 23.1402 19.5183C18.0693 19.5183 15.6494 16.9414 15.6494 13.5114V12.7413ZM21.1806 13.5667C21.1806 15.3952 22.1783 16.6062 24.7523 16.6062C27.02 16.6062 28.1718 15.4985 28.1718 13.7469V12.5155C28.1718 10.7639 27.02 9.65619 24.7523 9.65619C22.1783 9.65619 21.1806 10.8672 21.1806 12.6957V13.5667Z" fill="#1876F2"/>
<path d="M45.2277 6.73804C47.3771 6.73804 49.4138 7.04799 50.5279 7.56218L49.2991 10.1908C48.1466 9.82271 46.8875 9.62912 45.611 9.62375C42.6143 9.62375 41.3121 10.7831 41.3121 12.7678V13.4886C41.3121 15.4733 42.6179 16.6326 45.611 16.6326C46.8875 16.6272 48.1466 16.4336 49.2991 16.0655L50.5279 18.693C49.4138 19.2083 47.3789 19.5183 45.2277 19.5183C38.7345 19.5183 35.7772 17.1732 35.7772 13.4117V12.8446C35.7772 9.08313 38.7345 6.73804 45.2277 6.73804Z" fill="#1876F2"/>
<path d="M51.257 13.5967V12.5155C51.257 9.0375 54.2143 6.74887 60.2471 6.74887C65.9324 6.74887 68.4294 9.06753 68.4294 12.4686V14.4269H56.7864C56.9029 16.1016 58.017 16.8489 61.0854 16.8489C63.1614 16.8489 65.3503 16.5653 66.9642 16.1016L67.9762 18.6425C66.5163 19.1591 63.5196 19.5448 60.8704 19.5448C53.8686 19.5436 51.257 17.2009 51.257 13.5967ZM56.7882 11.9989H63.4731V11.6901C63.4731 10.3506 62.667 9.28739 60.2489 9.28739C57.7501 9.28859 56.7882 10.3458 56.7882 11.9941V11.9989Z" fill="#1876F2"/>
<path d="M88.9335 13.515C88.9335 16.9414 86.4759 19.5219 81.4104 19.5219C78.6447 19.5219 76.7245 18.5945 75.9561 17.4087V19.2636H70.7329V0.838065L76.2642 0.501678V8.69509C77.0702 7.61384 78.8382 6.73684 81.4121 6.73684C86.4831 6.73684 88.9353 9.3138 88.9353 12.7437L88.9335 13.515ZM83.4022 12.6644C83.4022 10.9381 82.4045 9.65018 79.7535 9.65018C77.4858 9.65018 76.257 10.7314 76.257 12.4842V13.7721C76.257 15.5237 77.4858 16.6062 79.7535 16.6062C82.4045 16.6062 83.4022 15.3183 83.4022 13.5919V12.6644Z" fill="#1876F2"/>
<path d="M90.7838 13.4369V12.8194C90.7838 9.28856 93.7805 6.73804 99.8886 6.73804C105.997 6.73804 108.995 9.28856 108.995 12.8194V13.4369C108.995 16.9666 105.998 19.5183 99.8904 19.5183C93.7823 19.5183 90.7838 16.9666 90.7838 13.4369ZM103.462 12.5611C103.462 10.9381 102.463 9.65018 99.8796 9.65018C97.2967 9.65018 96.3061 10.9381 96.3061 12.5611V13.6952C96.3061 15.3183 97.3056 16.6062 99.8796 16.6062C102.454 16.6062 103.462 15.3183 103.462 13.6952V12.5611Z" fill="#1876F2"/>
<path d="M110.835 13.4369V12.8194C110.835 9.28856 113.831 6.73804 119.939 6.73804C126.048 6.73804 129.044 9.28856 129.044 12.8194V13.4369C129.044 16.9666 126.048 19.5183 119.939 19.5183C113.831 19.5183 110.835 16.9666 110.835 13.4369ZM123.513 12.5611C123.513 10.9381 122.513 9.65018 119.939 9.65018C117.365 9.65018 116.368 10.9381 116.368 12.5611V13.6952C116.368 15.3183 117.365 16.6062 119.939 16.6062C122.513 16.6062 123.513 15.3183 123.513 13.6952V12.5611Z" fill="#1876F2"/>
<path d="M136.65 12.8446L142.104 6.99633H147.981L142.258 13.0513L148.212 19.26H142.335L136.65 13.2531V19.26H131.117V0.838065L136.65 0.501678V12.8446Z" fill="#1876F2"/>
</g>
<defs>
<clipPath id="clip0">
<path d="M0.984619 5.26142C0.984619 2.49999 3.2232 0.261414 5.98462 0.261414H143.314C146.076 0.261414 148.314 2.49999 148.314 5.26141V19.4835H0.984619V5.26142Z" fill="white"/>
</clipPath>
</defs>
</svg>
