<svg width="128" height="25" viewBox="0 0 128 25" fill="none" xmlns="http://www.w3.org/2000/svg">
<path d="M25.6984 6.71642C25.4017 6.56716 25.2534 6.36816 25.1792 6.1194C24.7341 2.68657 20.4318 0 15.1652 0C9.89861 0 5.59632 2.68657 5.15125 6.16915C5.15125 6.41791 4.92872 6.61692 4.63201 6.76617C2.0358 7.9602 0.329712 10 0.329712 12.2886C0.329712 15.4229 3.51935 18.0597 7.82164 18.806C8.56342 18.9552 9.30519 19.005 9.6019 18.9055C10.1211 18.7065 10.7887 17.0149 10.492 16.6667C10.3437 16.4677 9.6019 16.2687 8.86013 16.1692C6.33809 15.7214 4.48365 14.1791 4.48365 12.3383C4.48365 11.2935 5.07707 10.398 6.04138 9.65174C6.48645 9.35323 7.00569 9.05473 7.52493 8.85572C8.6376 8.45771 9.23102 7.66169 9.23102 6.81592C9.23102 6.36816 9.30519 5.97015 9.52773 5.57214C10.2695 3.9801 12.569 2.83582 15.1652 2.83582C17.7614 2.83582 20.0609 3.9801 20.8027 5.57214C21.0252 5.97015 21.0994 6.36816 21.0994 6.81592C21.0994 7.66169 21.767 8.40796 22.8055 8.85572C23.3989 9.05473 23.844 9.35323 24.2891 9.65174C25.2534 10.3483 25.8468 11.2935 25.8468 12.3383C25.8468 14.5274 23.1764 16.3184 19.9126 16.3184C16.1295 16.3184 13.0883 18.408 13.0883 20.9453V23.5821C13.0883 24.0796 13.1624 24.6269 13.385 24.7761C13.83 25.0746 16.4262 25.0746 16.8713 24.7761C17.0938 24.6269 17.168 24.1294 17.168 23.5821V20.8955C17.168 19.9005 18.3549 19.1045 19.8384 19.1045C25.4017 19.1045 29.9266 16.0697 29.9266 12.3383C30.0007 10 28.2946 7.9602 25.6984 6.71642Z" fill="#72EF36"/>
<path d="M62.5346 17.6617H59.7061V16.9652C58.8092 17.612 57.7054 17.9105 56.3257 17.9105C55.0149 17.9105 53.98 17.612 53.2212 17.0149C52.4623 16.4179 52.0483 15.6219 52.0483 14.6766V9.95026H54.8769V14.2786C54.8769 14.8259 55.0838 15.2736 55.4978 15.6219C55.9117 15.9702 56.3946 16.1194 57.0845 16.1194C58.8782 16.1194 59.7751 15.2239 59.7751 13.4328V10H62.6036V17.6617H62.5346Z" fill="#545454"/>
<path d="M81.2306 10.5473C82.0584 11.1443 82.4724 11.8905 82.4724 12.8358V17.7114H79.6438V13.2836C79.6438 12.7861 79.4368 12.3881 79.0229 12.0398C78.609 11.7413 78.1261 11.592 77.5052 11.592C76.7463 11.592 76.1254 11.791 75.6425 12.189C75.2285 12.5871 74.9526 13.1841 74.9526 13.9801V17.7114H72.124V13.2836C72.124 12.7861 71.917 12.3881 71.5031 12.0398C71.0892 11.7413 70.6063 11.592 69.9854 11.592C69.2265 11.592 68.6056 11.791 68.1916 12.189C67.7777 12.5871 67.5707 13.1841 67.5707 13.9801V17.7114H64.7422V9.90049H67.5707V10.5473C68.3986 9.95024 69.4334 9.65173 70.8132 9.65173C72.4 9.65173 73.5728 10.0995 74.3317 10.9453C75.2975 10.0995 76.6083 9.65173 78.264 9.65173C79.4369 9.65173 80.4027 9.95024 81.2306 10.5473Z" fill="#545454"/>
<path d="M93.3727 17.3134C92.4068 17.7115 91.441 17.9105 90.5441 17.9105C89.2334 17.9105 88.1985 17.6617 87.4397 17.1144C86.6808 16.6169 86.3358 15.8209 86.3358 14.7761V11.5423H83.9902V9.85076H86.3358V7.51245H89.1644V9.85076H92.6828V11.5423H89.1644V14.6269C89.1644 15.5224 89.7163 15.9702 90.7511 15.9702C91.303 15.9702 91.9239 15.8209 92.5448 15.5722L93.3727 17.3134Z" fill="#545454"/>
<path d="M102.755 9.85078L102.617 11.8408H101.996C99.4437 11.8408 98.1329 12.9354 98.1329 15.1742V17.6617H95.3043V9.90053H98.1329V11.3433C99.0987 10.3483 100.409 9.80103 101.996 9.80103C102.341 9.80103 102.617 9.80102 102.755 9.85078Z" fill="#545454"/>
<path d="M114.552 14.3284H106.343C106.481 14.8756 106.826 15.3234 107.308 15.6219C107.791 15.9701 108.412 16.1194 109.033 16.1194C110.275 16.1194 111.172 15.7711 111.724 15.0746L114.276 15.4726C113.793 16.2687 113.104 16.8657 112.207 17.2637C111.31 17.6617 110.206 17.8607 109.033 17.8607C107.446 17.8607 106.136 17.4627 105.101 16.7164C104.066 15.9701 103.514 14.9751 103.514 13.7313C103.514 12.5373 104.066 11.5423 105.101 10.7463C106.205 9.95025 107.515 9.60199 109.102 9.60199C110.551 9.60199 111.862 9.95025 112.897 10.6965C113.931 11.4428 114.483 12.3881 114.552 13.5821V14.3284ZM107.446 11.8408C106.963 12.0896 106.619 12.4378 106.412 12.8856H111.655C111.448 12.3881 111.172 12.0398 110.689 11.791C110.206 11.5423 109.723 11.4428 109.102 11.4428C108.481 11.4428 107.929 11.592 107.446 11.8408Z" fill="#545454"/>
<path d="M127.177 14.3284H118.968C119.106 14.8756 119.451 15.3234 119.933 15.6219C120.416 15.9701 121.037 16.1194 121.658 16.1194C122.9 16.1194 123.797 15.7711 124.349 15.0746L126.901 15.4726C126.418 16.2687 125.728 16.8657 124.832 17.2637C123.935 17.6617 122.831 17.8607 121.658 17.8607C120.071 17.8607 118.761 17.4627 117.726 16.7164C116.691 15.9701 116.139 14.9751 116.139 13.7313C116.139 12.5373 116.691 11.5423 117.726 10.7463C118.83 9.95025 120.14 9.60199 121.727 9.60199C123.176 9.60199 124.487 9.95025 125.522 10.6965C126.556 11.4428 127.108 12.3881 127.177 13.5821V14.3284ZM120.071 11.8408C119.588 12.0896 119.244 12.4378 119.037 12.8856H124.28C124.073 12.3881 123.797 12.0398 123.314 11.791C122.831 11.5423 122.348 11.4428 121.727 11.4428C121.106 11.4428 120.554 11.592 120.071 11.8408Z" fill="#545454"/>
<path d="M42.0449 11.592V13.5323H46.8741C46.5982 14.2786 46.1152 14.8756 45.3564 15.3234C44.5975 15.7711 43.6316 15.9701 42.5278 15.9701C41.148 15.9701 40.0442 15.6219 39.0784 14.9751C38.1815 14.3284 37.6986 13.4826 37.6986 12.4876C37.6986 11.4925 38.1125 10.6965 39.0094 10C39.9062 9.35323 41.0101 9.00497 42.3208 9.00497C44.1835 9.00497 45.5633 9.50248 46.4602 10.5473L48.8748 9.40298C48.3229 8.75622 47.633 8.20895 46.6672 7.81094C45.4254 7.26368 43.9766 7.01492 42.3898 7.01492C40.2512 7.01492 38.4575 7.56219 37.0087 8.60696C35.5599 9.65174 34.7321 10.9453 34.7321 12.4378C34.7321 13.9801 35.4909 15.2736 36.9397 16.3184C38.4575 17.3632 40.2512 17.9104 42.3898 17.9104C44.5285 17.9104 46.2532 17.4129 47.633 16.3682C49.0128 15.3234 49.7027 14.0298 49.7027 12.4876C49.7027 12.2388 49.7027 11.9403 49.6337 11.592H42.0449Z" fill="#545454"/>
</svg>
