<?xml version="1.0" encoding="UTF-8" standalone="no"?>
<!DOCTYPE svg PUBLIC "-//W3C//DTD SVG 1.1//EN" "http://www.w3.org/Graphics/SVG/1.1/DTD/svg11.dtd">
<svg width="100%" height="100%" viewBox="0 0 2223 667" version="1.1" xmlns="http://www.w3.org/2000/svg" xmlns:xlink="http://www.w3.org/1999/xlink" xml:space="preserve" xmlns:serif="http://www.serif.com/" style="fill-rule:evenodd;clip-rule:evenodd;stroke-linecap:round;stroke-linejoin:round;stroke-miterlimit:1.5;">
    <g transform="matrix(5.55556,0,0,5.55556,0,0)">
        <g transform="matrix(4.50708,0,0,3.83321,-1513.35,-979.932)">
            <text x="338.598px" y="280.621px" style="font-family:'Brown-Regular', 'Brown';font-size:12px;">Aut<tspan x="358.508px " y="280.621px ">o</tspan>Compar<tspan x="410.838px " y="280.621px ">e</tspan>r</text>
        </g>
        <g>
            <path d="M109.37,48.677C109.462,48.649 109.559,48.634 109.66,48.634C118.082,48.634 177.332,48.634 185.754,48.634C186.304,48.634 186.749,49.079 186.749,49.629C186.749,49.629 186.749,49.629 186.749,49.629C186.749,50.179 186.304,50.624 185.754,50.624L110.714,50.624C110.698,50.628 110.681,50.63 110.665,50.629L110.446,50.624L109.66,50.624C109.587,50.624 109.516,50.616 109.448,50.601L76.97,49.862C76.844,49.859 76.744,49.756 76.744,49.631C76.744,49.506 76.844,49.403 76.97,49.401L109.37,48.677Z" style="stroke:black;stroke-width:1px;"/>
        </g>
        <g transform="matrix(0.307114,0,0,0.288941,53.612,-89.8254)">
            <g transform="matrix(1,0,0,1,3.54029,3.49056)">
                <g transform="matrix(1,0,0,1,-7.78001,2.05249)">
                    <path d="M398.468,368.615L402.02,402.529C489.104,419.482 589.392,431.37 631.942,414.919C633.269,414.405 634.173,413.841 635.507,413.417C562.754,381.829 485.751,363.898 398.468,368.615Z" style="fill-opacity:0;stroke:black;stroke-width:7.38px;stroke-linejoin:miter;stroke-miterlimit:1;"/>
                </g>
                <g transform="matrix(2.97935,0,0,3.46092,-703.415,-400.708)">
                    <path d="M446.724,236.419C446.996,236.58 448.147,235.676 446.933,235.228C445.54,234.713 443.104,234.272 446.724,236.419Z" style="stroke:black;stroke-width:1.04px;"/>
                </g>
            </g>
            <g>
                <g>
                    <path d="M655.423,410.165C559.361,366.522 407.14,313.521 180.736,408.679" style="fill-opacity:0;stroke:black;stroke-width:10.06px;stroke-linejoin:miter;stroke-miterlimit:1;"/>
                    <g transform="matrix(3.25612,0,0,3.46092,-803.384,-430.924)">
                        <path d="M305.127,240.144C300.486,241.601 297.22,243.992 294.907,245.601C294.631,245.793 301.862,243.968 302.419,243.842C303.499,243.597 306.614,239.677 305.127,240.144Z" style="stroke:black;stroke-width:0.5px;"/>
                    </g>
                </g>
            </g>
            <g>
                <g transform="matrix(1,0,0,1,-2.97935,0)">
                    <path d="M751.308,509.215C858.582,505.621 851.192,507.918 859.494,498.408L859.67,484.295L856.195,477.461C849.408,464.999 808.348,443.609 765.859,428.258C733.924,416.721 698.678,413.503 670.874,411.676C666.695,411.402 661.616,410.886 658.484,410.258" style="fill-opacity:0;stroke:black;stroke-width:10.06px;"/>
                </g>
                <g transform="matrix(3.25612,0,0,3.46092,-803.384,-430.924)">
                    <path d="M476.575,272.894C472.381,273.02 464.109,267.116 467.74,267.979C467.887,268.014 471.37,268.472 474.344,269.804C475.99,270.542 476.493,270.348 478.483,270.487C480.011,270.593 483.669,272.682 476.575,272.894Z" style="stroke:black;stroke-width:0.5px;"/>
                </g>
            </g>
        </g>
    </g>
</svg>
